<svg width="41" height="41" viewBox="0 0 41 41" fill="none" xmlns="http://www.w3.org/2000/svg">
<ellipse cx="20.7035" cy="20.936" rx="20.1561" ry="19.9574" fill="#0E49B5"/>
<g clip-path="url(#clip0_4631_187)">
<path d="M20.9902 33.9083H19.409C18.1301 33.9083 17.0895 32.8781 17.0895 31.6118V31.0821C16.5458 30.9101 16.0176 30.693 15.5101 30.433L15.131 30.8084C14.2128 31.7186 12.742 31.6919 11.8504 30.808L10.7328 29.7015C9.83974 28.8182 9.81405 27.3623 10.7331 26.4533L11.1119 26.0782C10.8493 25.5757 10.6301 25.0528 10.4563 24.5143H9.92143C8.64258 24.5143 7.60205 23.4841 7.60205 22.2178V20.6521C7.60205 19.3858 8.64258 18.3556 9.92148 18.3556H10.4564C10.6301 17.8172 10.8494 17.2942 11.112 16.7917L10.7329 16.4164C9.81435 15.5079 9.83969 14.0519 10.7332 13.1682L11.8509 12.0616C12.7445 11.1756 14.2149 11.1535 15.1314 12.0619L15.5101 12.4369C16.0176 12.1769 16.5459 11.9598 17.0896 11.7878V11.2581C17.0896 9.99184 18.1301 8.96162 19.409 8.96162H20.9903C22.2692 8.96162 23.3096 9.99184 23.3096 11.2581V11.7878C23.8533 11.9598 24.3816 12.1769 24.8891 12.437L25.2682 12.0616C26.1864 11.1513 27.6572 11.178 28.5487 12.0619L29.6663 13.1685C30.5594 14.0518 30.5851 15.5076 29.666 16.4166L29.2872 16.7917C29.5499 17.2942 29.7691 17.8172 29.9428 18.3556H30.4777C31.7566 18.3556 32.7972 19.3858 32.7972 20.6521V22.2178C32.7972 23.4841 31.7566 24.5143 30.4777 24.5143H29.9428C29.7691 25.0527 29.5499 25.5757 29.2872 26.0782L29.6663 26.4536C30.5849 27.3621 30.5595 28.8181 29.666 29.7018L28.5483 30.8084C27.6548 31.6944 26.1843 31.7165 25.2679 30.8081L24.8891 30.4331C24.3816 30.6931 23.8533 30.9102 23.3096 31.0822V31.6119C23.3096 32.8781 22.2692 33.9083 20.9902 33.9083ZM15.7569 28.898C16.4619 29.3109 17.2207 29.6228 18.0122 29.825C18.3381 29.9083 18.5659 30.1994 18.5659 30.5327V31.6118C18.5659 32.0721 18.9441 32.4466 19.409 32.4466H20.9903C21.4551 32.4466 21.8334 32.0721 21.8334 31.6118V30.5327C21.8334 30.1994 22.0611 29.9083 22.3871 29.825C23.1786 29.6228 23.9374 29.3109 24.6424 28.898C24.9325 28.7282 25.3018 28.7744 25.5401 29.0103L26.3121 29.7748C26.645 30.1047 27.1795 30.0971 27.5042 29.7751L28.6226 28.6678C28.9465 28.3475 28.9573 27.8182 28.6229 27.4875L27.8505 26.7227C27.6122 26.4868 27.5656 26.1211 27.7371 25.8339C28.154 25.1359 28.469 24.3846 28.6732 23.6009C28.7574 23.2781 29.0514 23.0527 29.388 23.0527H30.4778C30.9427 23.0527 31.3209 22.6782 31.3209 22.2179V20.6522C31.3209 20.1919 30.9427 19.8174 30.4778 19.8174H29.388C29.0513 19.8174 28.7574 19.5919 28.6732 19.2692C28.469 18.4855 28.154 17.7341 27.7371 17.0361C27.5656 16.7489 27.6122 16.3832 27.8505 16.1473L28.6226 15.3829C28.9563 15.0528 28.9476 14.5237 28.6229 14.2025L27.5046 13.0953C27.1804 12.7739 26.6458 12.7645 26.3125 13.095L25.5402 13.8597C25.3019 14.0957 24.9325 14.1419 24.6425 13.972C23.9374 13.5592 23.1786 13.2473 22.3872 13.045C22.0612 12.9618 21.8335 12.6707 21.8335 12.3374V11.2581C21.8335 10.7978 21.4552 10.4233 20.9903 10.4233H19.4091C18.9442 10.4233 18.5659 10.7978 18.5659 11.2581V12.3373C18.5659 12.6706 18.3382 12.9617 18.0122 13.0449C17.2207 13.2472 16.4619 13.5591 15.7569 13.9719C15.4668 14.1417 15.0975 14.0955 14.8592 13.8596L14.0872 13.0952C13.7543 12.7652 13.2198 12.7729 12.8951 13.0948L11.7768 14.2021C11.4529 14.5224 11.442 15.0517 11.7765 15.3825L12.5488 16.1472C12.7871 16.3831 12.8337 16.7488 12.6622 17.036C12.2453 17.734 11.9303 18.4854 11.7261 19.2691C11.6419 19.5918 11.348 19.8173 11.0114 19.8173H9.92148C9.4566 19.8173 9.07833 20.1918 9.07833 20.6521V22.2178C9.07833 22.6781 9.4566 23.0526 9.92148 23.0526H11.0113C11.348 23.0526 11.6419 23.2781 11.726 23.6008C11.9303 24.3845 12.2453 25.1359 12.6622 25.8339C12.8337 26.1211 12.787 26.4868 12.5488 26.7227L11.7767 27.4871C11.443 27.8172 11.4517 28.3463 11.7764 28.6675L12.8947 29.7747C13.2188 30.0961 13.7534 30.1055 14.0868 29.775L14.8591 29.0103C15.0347 28.8365 15.3999 28.689 15.7569 28.898Z" fill="white"/>
<path d="M20.1997 26.8628C17.1769 26.8628 14.7178 24.4279 14.7178 21.435C14.7178 18.442 17.1769 16.0071 20.1997 16.0071C23.2225 16.0071 25.6816 18.442 25.6816 21.435C25.6816 24.4279 23.2225 26.8628 20.1997 26.8628ZM20.1997 17.4688C17.9909 17.4688 16.1941 19.248 16.1941 21.435C16.1941 23.6219 17.991 25.4011 20.1997 25.4011C22.4084 25.4011 24.2053 23.6219 24.2053 21.435C24.2053 19.248 22.4084 17.4688 20.1997 17.4688Z" fill="white"/>
</g>
<defs>
<clipPath id="clip0_4631_187">
<rect width="25.1951" height="24.9467" fill="white" transform="translate(7.60205 8.96162)"/>
</clipPath>
</defs>
</svg>
